<?xml version="1.0" standalone="no"?>
<!DOCTYPE svg PUBLIC "-//W3C//DTD SVG 20010904//EN"
 "http://www.w3.org/TR/2001/REC-SVG-20010904/DTD/svg10.dtd">
<svg version="1.0" xmlns="http://www.w3.org/2000/svg"
 width="1280.000000pt" height="1280.000000pt" viewBox="0 0 1280.000000 1280.000000"
 preserveAspectRatio="xMidYMid meet">
<g transform="translate(0.000000,1280.000000) scale(0.100000,-0.100000)"
fill="#000000" stroke="none">
<path d="M5775 10724 c-447 -34 -742 -108 -1046 -259 -266 -133 -441 -265
-705 -531 l-202 -202 -143 -17 c-453 -52 -840 -163 -1234 -355 -809 -394
-1442 -1067 -1810 -1925 -58 -135 -154 -423 -189 -565 -193 -797 -139 -1676
149 -2437 75 -199 263 -574 377 -756 319 -505 701 -890 1196 -1204 668 -424
1417 -598 2184 -508 474 56 869 200 1248 456 391 264 740 662 1021 1164 234
418 389 802 524 1295 81 296 231 922 310 1295 191 895 303 1328 422 1630 68
173 168 385 182 385 18 0 22 -18 41 -168 47 -372 60 -777 60 -1820 0 -458 -2
-838 -6 -843 -3 -5 -2 -131 2 -279 l7 -270 36 -10 c45 -13 41 -17 188 218 172
276 294 490 813 1427 317 572 656 1095 924 1425 125 154 296 319 296 286 0 -3
-41 -76 -91 -163 -158 -274 -291 -565 -461 -1002 -425 -1094 -663 -1991 -755
-2841 -22 -209 -25 -773 -5 -920 72 -506 256 -900 554 -1186 249 -238 522
-347 873 -347 224 0 395 43 560 139 94 56 236 190 301 284 39 58 45 72 39 100
-7 34 -39 58 -114 87 l-44 17 -51 -60 c-121 -141 -238 -227 -370 -270 -68 -23
-100 -27 -196 -28 -78 0 -136 5 -180 17 -339 89 -550 418 -600 936 -49 504 68
1430 315 2486 331 1418 705 2512 1062 3102 277 459 516 639 1043 788 l145 41
0 88 c0 85 -1 90 -27 109 l-27 20 -118 -28 c-643 -151 -1241 -472 -1798 -965
-149 -132 -397 -388 -524 -540 -304 -364 -637 -871 -1003 -1529 -41 -74 -80
-137 -86 -139 -9 -3 -12 41 -12 160 -1 472 -30 1114 -66 1443 -73 663 -275
1300 -540 1696 -395 591 -1042 959 -1854 1054 -131 15 -513 27 -615 19z m300
-275 c526 -65 993 -319 1337 -729 218 -259 409 -627 523 -1008 l37 -122 -76
-164 c-135 -294 -276 -656 -389 -1001 -31 -93 -176 -573 -322 -1065 -146 -492
-296 -985 -332 -1095 -261 -795 -593 -1477 -952 -1955 -420 -560 -902 -907
-1456 -1050 -203 -52 -315 -64 -585 -64 -264 1 -417 17 -639 70 -468 110 -933
352 -1336 694 -112 95 -355 346 -446 460 -168 212 -313 438 -432 676 -204 408
-317 785 -373 1254 -21 175 -25 614 -6 790 41 386 137 769 272 1090 410 975
1160 1705 2120 2063 202 75 574 175 606 163 10 -4 -12 -58 -81 -198 -102 -210
-170 -388 -214 -562 -139 -540 -85 -1114 149 -1591 206 -418 552 -775 940
-970 290 -146 632 -210 976 -185 430 31 760 168 1108 459 68 57 113 88 119 82
13 -13 -52 -268 -110 -434 -149 -429 -370 -786 -677 -1093 -387 -387 -857
-632 -1342 -700 -93 -13 -164 -15 -329 -11 -237 6 -330 21 -526 87 -319 106
-611 319 -834 610 -328 428 -435 1036 -279 1594 35 124 29 137 -81 172 -45 15
-89 25 -97 21 -17 -6 -68 -179 -98 -333 -66 -341 -42 -710 66 -1044 77 -237
230 -500 408 -702 262 -298 663 -536 1056 -627 573 -133 1230 -40 1745 246
448 249 790 616 1047 1122 209 412 319 832 357 1366 l8 120 60 95 c151 240
276 525 376 862 34 115 34 117 16 146 -18 31 -67 47 -157 54 l-33 3 -35 -119
c-60 -207 -218 -574 -251 -584 -7 -2 -15 12 -18 35 -61 357 -139 611 -270 878
-122 250 -277 464 -488 675 -408 408 -924 680 -1459 769 -128 21 -338 41 -439
41 -45 0 -59 4 -59 14 0 16 153 158 260 242 83 66 244 171 340 222 258 139
537 217 880 246 66 6 322 -4 415 -15z m-1500 -964 c607 -93 1147 -414 1558
-925 355 -441 494 -815 527 -1420 l10 -184 -24 -37 c-38 -57 -242 -264 -341
-347 -300 -251 -609 -372 -986 -389 -397 -17 -735 91 -1070 343 -398 300 -663
763 -745 1299 -23 150 -22 451 0 600 55 355 169 649 379 973 33 52 70 98 81
103 35 15 487 3 611 -16z"/>
</g>
</svg>
